<?xml version="1.0" encoding="UTF-8" standalone="no"?>
<!-- Generator: Adobe Illustrator 19.0.1, SVG Export Plug-In . SVG Version: 6.00 Build 0)  -->

<svg
   xmlns:dc="http://purl.org/dc/elements/1.1/"
   xmlns:cc="http://creativecommons.org/ns#"
   xmlns:rdf="http://www.w3.org/1999/02/22-rdf-syntax-ns#"
   xmlns:svg="http://www.w3.org/2000/svg"
   xmlns="http://www.w3.org/2000/svg"
   xmlns:sodipodi="http://sodipodi.sourceforge.net/DTD/sodipodi-0.dtd"
   xmlns:inkscape="http://www.inkscape.org/namespaces/inkscape"
   version="1.1"
   id="Layer_1"
   x="0px"
   y="0px"
   viewBox="0 0 304 182"
   style="enable-background:new 0 0 304 182;"
   xml:space="preserve"
   sodipodi:docname="AWS.svg"
   inkscape:version="0.92.5 (2060ec1f9f, 2020-04-08)"><metadata
   id="metadata4618"><rdf:RDF><cc:Work
       rdf:about=""><dc:format>image/svg+xml</dc:format><dc:type
         rdf:resource="http://purl.org/dc/dcmitype/StillImage" /><dc:title></dc:title></cc:Work></rdf:RDF></metadata><defs
   id="defs4616" /><sodipodi:namedview
   pagecolor="#ffffff"
   bordercolor="#666666"
   borderopacity="1"
   objecttolerance="10"
   gridtolerance="10"
   guidetolerance="10"
   inkscape:pageopacity="0"
   inkscape:pageshadow="2"
   inkscape:window-width="1920"
   inkscape:window-height="1027"
   id="namedview4614"
   showgrid="false"
   inkscape:zoom="4.6019737"
   inkscape:cx="152"
   inkscape:cy="64.3438"
   inkscape:window-x="-8"
   inkscape:window-y="-8"
   inkscape:window-maximized="1"
   inkscape:current-layer="Layer_1" />
<style
   type="text/css"
   id="style4601">
	.st0{fill:#252F3E;}
	.st1{fill-rule:evenodd;clip-rule:evenodd;fill:#FF9900;}
</style>
<g
   id="g4611">
	<path
   class="st0"
   d="M86.4,66.4c0,3.7,0.4,6.7,1.1,8.9c0.8,2.2,1.8,4.6,3.2,7.2c0.5,0.8,0.7,1.6,0.7,2.3c0,1-0.6,2-1.9,3l-6.3,4.2   c-0.9,0.6-1.8,0.9-2.6,0.9c-1,0-2-0.5-3-1.4C76.2,90,75,88.4,74,86.8c-1-1.7-2-3.6-3.1-5.9c-7.8,9.2-17.6,13.8-29.4,13.8   c-8.4,0-15.1-2.4-20-7.2c-4.9-4.8-7.4-11.2-7.4-19.2c0-8.5,3-15.4,9.1-20.6c6.1-5.2,14.2-7.8,24.5-7.8c3.4,0,6.9,0.3,10.6,0.8   c3.7,0.5,7.5,1.3,11.5,2.2v-7.3c0-7.6-1.6-12.9-4.7-16c-3.2-3.1-8.6-4.6-16.3-4.6c-3.5,0-7.1,0.4-10.8,1.3c-3.7,0.9-7.3,2-10.8,3.4   c-1.6,0.7-2.8,1.1-3.5,1.3c-0.7,0.2-1.2,0.3-1.6,0.3c-1.4,0-2.1-1-2.1-3.1v-4.9c0-1.6,0.2-2.8,0.7-3.5c0.5-0.7,1.4-1.4,2.8-2.1   c3.5-1.8,7.7-3.3,12.6-4.5c4.9-1.3,10.1-1.9,15.6-1.9c11.9,0,20.6,2.7,26.2,8.1c5.5,5.4,8.3,13.6,8.3,24.6V66.4z M45.8,81.6   c3.3,0,6.7-0.6,10.3-1.8c3.6-1.2,6.8-3.4,9.5-6.4c1.6-1.9,2.8-4,3.4-6.4c0.6-2.4,1-5.3,1-8.7v-4.2c-2.9-0.7-6-1.3-9.2-1.7   c-3.2-0.4-6.3-0.6-9.4-0.6c-6.7,0-11.6,1.3-14.9,4c-3.3,2.7-4.9,6.5-4.9,11.5c0,4.7,1.2,8.2,3.7,10.6   C37.7,80.4,41.2,81.6,45.8,81.6z M126.1,92.4c-1.8,0-3-0.3-3.8-1c-0.8-0.6-1.5-2-2.1-3.9L96.7,10.2c-0.6-2-0.9-3.3-0.9-4   c0-1.6,0.8-2.5,2.4-2.5h9.8c1.9,0,3.2,0.3,3.9,1c0.8,0.6,1.4,2,2,3.9l16.8,66.2l15.6-66.2c0.5-2,1.1-3.3,1.9-3.9c0.8-0.6,2.2-1,4-1   h8c1.9,0,3.2,0.3,4,1c0.8,0.6,1.5,2,1.9,3.9l15.8,67l17.3-67c0.6-2,1.3-3.3,2-3.9c0.8-0.6,2.1-1,3.9-1h9.3c1.6,0,2.5,0.8,2.5,2.5   c0,0.5-0.1,1-0.2,1.6c-0.1,0.6-0.3,1.4-0.7,2.5l-24.1,77.3c-0.6,2-1.3,3.3-2.1,3.9c-0.8,0.6-2.1,1-3.8,1h-8.6c-1.9,0-3.2-0.3-4-1   c-0.8-0.7-1.5-2-1.9-4L156,23l-15.4,64.4c-0.5,2-1.1,3.3-1.9,4c-0.8,0.7-2.2,1-4,1H126.1z M254.6,95.1c-5.2,0-10.4-0.6-15.4-1.8   c-5-1.2-8.9-2.5-11.5-4c-1.6-0.9-2.7-1.9-3.1-2.8c-0.4-0.9-0.6-1.9-0.6-2.8v-5.1c0-2.1,0.8-3.1,2.3-3.1c0.6,0,1.2,0.1,1.8,0.3   c0.6,0.2,1.5,0.6,2.5,1c3.4,1.5,7.1,2.7,11,3.5c4,0.8,7.9,1.2,11.9,1.2c6.3,0,11.2-1.1,14.6-3.3c3.4-2.2,5.2-5.4,5.2-9.5   c0-2.8-0.9-5.1-2.7-7c-1.8-1.9-5.2-3.6-10.1-5.2L246,52c-7.3-2.3-12.7-5.7-16-10.2c-3.3-4.4-5-9.3-5-14.5c0-4.2,0.9-7.9,2.7-11.1   c1.8-3.2,4.2-6,7.2-8.2c3-2.3,6.4-4,10.4-5.2c4-1.2,8.2-1.7,12.6-1.7c2.2,0,4.5,0.1,6.7,0.4c2.3,0.3,4.4,0.7,6.5,1.1   c2,0.5,3.9,1,5.7,1.6c1.8,0.6,3.2,1.2,4.2,1.8c1.4,0.8,2.4,1.6,3,2.5c0.6,0.8,0.9,1.9,0.9,3.3v4.7c0,2.1-0.8,3.2-2.3,3.2   c-0.8,0-2.1-0.4-3.8-1.2c-5.7-2.6-12.1-3.9-19.2-3.9c-5.7,0-10.2,0.9-13.3,2.8c-3.1,1.9-4.7,4.8-4.7,8.9c0,2.8,1,5.2,3,7.1   c2,1.9,5.7,3.8,11,5.5l14.2,4.5c7.2,2.3,12.4,5.5,15.5,9.6c3.1,4.1,4.6,8.8,4.6,14c0,4.3-0.9,8.2-2.6,11.6   c-1.8,3.4-4.2,6.4-7.3,8.8c-3.1,2.5-6.8,4.3-11.1,5.6C264.4,94.4,259.7,95.1,254.6,95.1z"
   id="path4603" />
	<g
   id="g4609">
		<path
   class="st1"
   d="M273.5,143.7c-32.9,24.3-80.7,37.2-121.8,37.2c-57.6,0-109.5-21.3-148.7-56.7c-3.1-2.8-0.3-6.6,3.4-4.4    c42.4,24.6,94.7,39.5,148.8,39.5c36.5,0,76.6-7.6,113.5-23.2C274.2,133.6,278.9,139.7,273.5,143.7z"
   id="path4605" />
		<path
   class="st1"
   d="M287.2,128.1c-4.2-5.4-27.8-2.6-38.5-1.3c-3.2,0.4-3.7-2.4-0.8-4.5c18.8-13.2,49.7-9.4,53.3-5    c3.6,4.5-1,35.4-18.6,50.2c-2.7,2.3-5.3,1.1-4.1-1.9C282.5,155.7,291.4,133.4,287.2,128.1z"
   id="path4607" />
	</g>
</g>
<path
   style="fill:#ffffff;fill-opacity:1;stroke:none;stroke-width:0.21846154;stroke-miterlimit:4;stroke-dasharray:none;stroke-opacity:1"
   d="M 37.223159,94.397823 C 24.993443,92.876875 17.005124,85.711208 14.69643,74.190936 c -0.532346,-2.65638 -0.531893,-8.967172 8.36e-4,-11.657798 1.082318,-5.466405 3.434685,-9.764849 7.475891,-13.660582 7.762433,-7.483007 19.26102,-10.197271 34.824127,-8.220306 3.195948,0.405978 11.555757,1.944929 12.469178,2.295441 0.318068,0.122055 0.351408,-0.395591 0.351408,-5.455937 0,-6.361164 -0.294578,-9.05402 -1.330321,-12.160969 -0.812547,-2.437424 -1.705876,-4.020488 -3.110389,-5.511903 -2.107802,-2.23822 -5.691745,-3.818703 -10.146149,-4.47435 -3.015389,-0.443838 -9.388404,-0.448979 -12.534952,-0.01011 -4.509522,0.628969 -9.940307,2.133323 -15.468611,4.284879 -2.773903,1.079573 -3.612358,1.31526 -4.7525,1.335912 -1.27888,0.02317 -1.419639,-0.02172 -1.847034,-0.588972 -0.436425,-0.579239 -0.462653,-0.862568 -0.462653,-4.997856 0,-3.730589 0.0555,-4.485181 0.372467,-5.064142 0.535361,-0.9778724 1.50338,-1.7201886 3.628151,-2.782213 5.488901,-2.7435183 13.704429,-5.0447301 20.662713,-5.7877323 3.158831,-0.3372984 10.700787,-0.3354588 13.689778,0.00334 15.532399,1.760576 23.912045,8.7705463 26.612673,22.2627593 0.889825,4.445523 0.982546,6.747429 0.985588,24.468099 0.0015,9.414928 0.102182,18.22992 0.228072,19.991423 0.372603,5.213672 0.963204,7.316228 3.54022,12.603288 1.531547,3.142152 1.689666,4.177182 0.823631,5.391411 -0.68446,0.959651 -7.982479,5.828203 -9.241202,6.164861 -1.474161,0.394279 -2.553322,-0.01951 -4.055984,-1.555181 -1.584465,-1.619283 -3.628578,-4.685507 -5.140703,-7.711202 -0.659282,-1.319197 -1.225339,-2.428212 -1.257901,-2.464482 -0.03257,-0.03627 -1.21924,1.094083 -2.637058,2.51189 -5.863254,5.863213 -12.001853,9.151873 -19.796167,10.605497 -1.846358,0.344344 -9.589881,0.611512 -11.35638,0.391824 z M 51.130236,81.174349 c 5.969328,-1.123562 10.141572,-3.227627 13.793669,-6.956155 3.678919,-3.75591 4.849258,-7.335568 5.048077,-15.44029 l 0.117574,-4.792807 -2.254498,-0.469092 c -5.448361,-1.133636 -8.844675,-1.542971 -14.205894,-1.712144 -6.66355,-0.210264 -10.655959,0.403471 -14.380926,2.210717 -3.42231,1.660405 -5.619004,4.112129 -6.898598,7.699501 -0.638754,1.790764 -0.662343,1.987684 -0.664915,5.550698 -0.0039,5.386711 0.720418,7.601552 3.417483,10.450247 2.010338,2.123361 4.284028,3.274632 7.452518,3.773551 1.760827,0.277263 6.320697,0.110181 8.57551,-0.314226 z"
   id="path5163"
   inkscape:connector-curvature="0" /><path
   style="fill:#ffffff;fill-opacity:1;stroke:none;stroke-width:0.21846154;stroke-miterlimit:4;stroke-dasharray:none;stroke-opacity:1"
   d="M 124.17229,92.138883 C 122.91822,91.87899 121.97845,91.130581 121.26871,89.826547 120.74253,88.859792 97.008732,11.308829 96.171656,7.8211231 95.759475,6.1037565 95.91122,5.0547589 96.675599,4.3374144 l 0.55801,-0.5236734 6.446531,0.00285 c 5.86444,0.00259 6.52121,0.039691 7.27366,0.4108514 1.00566,0.4960654 1.70596,1.3807608 2.31106,2.9196168 0.25095,0.6381861 4.2193,15.9902948 8.81856,34.1157978 4.59926,18.125501 8.41311,33.091684 8.47522,33.258182 0.0621,0.166498 0.15071,0.264282 0.1969,0.217298 0.0462,-0.04698 3.61293,-15.066955 7.92608,-33.377711 4.31315,-18.310759 8.04448,-33.8331968 8.29183,-34.4943083 0.24736,-0.6611114 0.72916,-1.4814412 1.07067,-1.8229549 1.08015,-1.0801454 2.11121,-1.229623 8.48169,-1.229623 5.74768,0 5.76755,0.00161 6.84489,0.5529293 0.83777,0.4287255 1.21543,0.8025757 1.68127,1.6643028 0.47036,0.8700939 2.32373,8.4160751 8.53693,34.7580081 4.36487,18.505649 8.01784,33.939985 8.1177,34.298527 0.12581,0.451674 0.2217,0.551785 0.31221,0.325947 0.0719,-0.179271 3.95,-15.140243 8.61812,-33.246605 4.66812,-18.106361 8.6429,-33.4095781 8.83285,-34.0071478 0.53676,-1.6886539 1.3888,-3.1215408 2.12771,-3.5782116 1.053,-0.6507868 3.11431,-0.8734063 8.05169,-0.8695733 4.94639,0.00384 6.09783,0.1547448 6.68191,0.8757157 0.46966,0.5797238 0.50537,2.4460065 0.0767,4.0066653 -0.6844,2.4915037 -24.52315,78.7870697 -25.0445,80.1545327 -0.31299,0.820946 -0.85842,1.822179 -1.21206,2.224961 -1.08612,1.237021 -2.03149,1.389084 -8.62724,1.3877 -3.30069,-6.52e-4 -6.11938,-0.09733 -6.5814,-0.225649 -1.07842,-0.299506 -1.99406,-1.102996 -2.53843,-2.227511 -0.24579,-0.507728 -3.92343,-15.393081 -8.17254,-33.07856 -8.44136,-35.134283 -8.13172,-33.872254 -8.27538,-33.728589 -0.0552,0.05524 -3.61314,14.781125 -7.90645,32.724196 -4.2933,17.943069 -8.01115,33.087512 -8.26187,33.654321 -0.56458,1.276322 -1.18745,1.968125 -2.17302,2.413526 -0.62323,0.281648 -1.81983,0.352587 -6.62759,0.392907 -3.22688,0.02706 -6.29362,-0.0392 -6.81499,-0.14725 z"
   id="path5165"
   inkscape:connector-curvature="0" /><path
   style="fill:#ffffff;fill-opacity:1;stroke:none;stroke-width:0.21846154;stroke-miterlimit:4;stroke-dasharray:none;stroke-opacity:1"
   d="m 248.43688,94.720923 c -8.72279,-0.804007 -19.00719,-3.883523 -22.44233,-6.720038 -1.54115,-1.272585 -1.76108,-1.999536 -1.85573,-6.133782 -0.0959,-4.190949 0.007,-4.998164 0.72575,-5.717383 0.88734,-0.887346 2.03459,-0.720754 6.04887,0.878355 8.14208,3.243448 12.80879,4.217767 21.10886,4.407131 3.99599,0.09117 5.49259,0.04134 7.46585,-0.248571 4.64235,-0.682049 7.996,-2.079971 10.41215,-4.340158 1.52037,-1.422231 2.2029,-2.4523 2.9048,-4.38391 0.6367,-1.752157 0.68974,-5.312953 0.10493,-7.044823 -0.93875,-2.780086 -2.83861,-4.776034 -6.15542,-6.466756 -2.76542,-1.409652 -4.22736,-1.928546 -13.86312,-4.920534 -4.42201,-1.373076 -8.67562,-2.736824 -9.45246,-3.030554 -7.87606,-2.97799 -12.92226,-7.292341 -15.96596,-13.650411 -0.53384,-1.115141 -1.23619,-2.907585 -1.56079,-3.98321 -0.54962,-1.821271 -0.59113,-2.239442 -0.60391,-6.084346 -0.0121,-3.644474 0.0445,-4.345275 0.48305,-5.975697 2.13663,-7.943936 8.81856,-14.6454907 17.75626,-17.808411 4.44758,-1.5739355 8.52307,-2.2008288 14.34167,-2.2060391 4.30615,-0.00386 6.35529,0.1734011 10.53896,0.9116524 2.81634,0.4969742 7.29198,1.6757672 9.50054,2.5022513 3.40509,1.2742526 6.09479,3.324665 6.56025,5.0010197 0.37624,1.3550627 0.3068,8.0085187 -0.0916,8.7790007 -0.82372,1.592881 -1.7722,1.50397 -6.95129,-0.65161 -5.31246,-2.211086 -11.04234,-3.264105 -17.76126,-3.264105 -7.18237,0 -12.10117,1.311671 -15.12967,4.034553 -2.23786,2.012025 -3.43982,5.821308 -2.91226,9.229622 0.79815,5.156485 4.6725,8.124181 14.94257,11.445797 16.14059,5.2203 17.00495,5.519908 19.45269,6.742733 5.7624,2.878752 9.00139,5.903819 11.34367,10.594472 1.64471,3.293696 2.34205,6.392034 2.34072,10.399988 -0.002,7.290124 -2.39027,13.111335 -7.43716,18.13059 -4.17582,4.152962 -8.87567,6.636227 -15.94389,8.424286 -5.04612,1.276528 -11.81071,1.71059 -17.90471,1.148887 z"
   id="path5167"
   inkscape:connector-curvature="0" /></svg>