<?xml version="1.0" encoding="UTF-8" standalone="no"?>
<!-- Created with Inkscape (http://www.inkscape.org/) -->

<svg
   xmlns:dc="http://purl.org/dc/elements/1.1/"
   xmlns:cc="http://creativecommons.org/ns#"
   xmlns:rdf="http://www.w3.org/1999/02/22-rdf-syntax-ns#"
   xmlns:svg="http://www.w3.org/2000/svg"
   xmlns="http://www.w3.org/2000/svg"
   xmlns:sodipodi="http://sodipodi.sourceforge.net/DTD/sodipodi-0.dtd"
   xmlns:inkscape="http://www.inkscape.org/namespaces/inkscape"
   width="102.6716mm"
   height="116.4699mm"
   viewBox="0 0 363.79696 412.68863"
   id="svg3476"
   version="1.1"
   inkscape:version="0.92.5 (2060ec1f9f, 2020-04-08)"
   sodipodi:docname="CSSLogo.svg">
  <defs
     id="defs3478">
    <clipPath
       clipPathUnits="userSpaceOnUse"
       id="clipPath3919">
      <rect
         id="rect3921"
         width="520.98218"
         height="469.41968"
         x="6.9990664"
         y="82.089272"
         style="stroke-width:0.93750006" />
    </clipPath>
    <clipPath
       clipPathUnits="userSpaceOnUse"
       id="clipPath3925">
      <rect
         id="rect3927"
         width="421.875"
         height="423.88391"
         x="60.846802"
         y="97.884445"
         style="stroke-width:0.93749994" />
    </clipPath>
    <clipPath
       clipPathUnits="userSpaceOnUse"
       id="clipPath3939">
      <rect
         id="rect3941"
         width="362.77261"
         height="411.27127"
         x="74.632996"
         y="100.62001"
         style="stroke-width:0.93749994"
         ry="0" />
    </clipPath>
  </defs>
  <sodipodi:namedview
     id="base"
     pagecolor="#ffffff"
     bordercolor="#666666"
     borderopacity="1.0"
     inkscape:pageopacity="0.0"
     inkscape:pageshadow="2"
     inkscape:zoom="1.4"
     inkscape:cx="307.08194"
     inkscape:cy="163.64725"
     inkscape:document-units="px"
     inkscape:current-layer="layer1"
     showgrid="false"
     fit-margin-top="0.3"
     fit-margin-left="0.3"
     fit-margin-right="2.7755576e-17"
     fit-margin-bottom="0.1"
     inkscape:window-width="2560"
     inkscape:window-height="1387"
     inkscape:window-x="1912"
     inkscape:window-y="-8"
     inkscape:window-maximized="1" />
  <metadata
     id="metadata3481">
    <rdf:RDF>
      <cc:Work
         rdf:about="">
        <dc:format>image/svg+xml</dc:format>
        <dc:type
           rdf:resource="http://purl.org/dc/dcmitype/StillImage" />
        <dc:title></dc:title>
      </cc:Work>
    </rdf:RDF>
  </metadata>
  <g
     inkscape:label="Calque 1"
     inkscape:groupmode="layer"
     id="layer1"
     transform="translate(-192.57001,-375.91922)">
    <g
       id="g3013"
       transform="translate(119,276.3622)"
       clip-path="url(#clipPath3939)">
      <polygon
         id="polygon2989"
         points="74.633,100.62 437.367,100.62 404.321,470.819 255.778,512 107.644,470.877 "
         style="fill:#264de4" />
      <polygon
         id="polygon2991"
         points="256,130.894 256,480.523 376.03,447.246 404.27,130.894 "
         style="fill:#2965f1" />
      <polygon
         id="polygon2993"
         points="256,313.627 256,268.217 150.31,268.217 154.38,313.627 "
         style="fill:#ebebeb" />
      <polygon
         id="polygon2995"
         points="256,221.716 256,176.305 255.843,176.305 142.132,176.305 146.26,221.716 "
         style="fill:#ebebeb" />
      <polygon
         id="polygon2997"
         points="177.419,336.333 156.409,336.333 162.771,407.634 255.791,433.457 256,433.399 256,386.153 255.801,386.206 205.227,372.55 201.994,336.333 "
         style="fill:#ebebeb" />
      <path
         id="path2999"
         d="m 160,0 h 55 v 23 h -32 v 23 h 32 v 23 h -55 z"
         inkscape:connector-curvature="0" />
      <path
         id="path3001"
         d="m 226,0 h 55 v 20 h -32 v 4 h 32 V 70 H 226 V 49 h 32 v -4 h -32 z"
         inkscape:connector-curvature="0" />
      <path
         id="path3003"
         d="m 292,0 h 55 v 20 h -32 v 4 h 32 V 70 H 292 V 49 h 32 v -4 h -32 z"
         inkscape:connector-curvature="0" />
      <polygon
         id="polygon3005"
         points="255.843,313.627 311.761,313.627 306.49,372.521 255.843,386.191 255.843,433.435 348.937,407.634 349.62,399.962 360.291,280.411 361.399,268.217 369.597,176.305 255.843,176.305 255.843,221.716 319.831,221.716 315.699,268.217 255.843,268.217 "
         style="fill:#ffffff" />
    </g>
  </g>
</svg>
