<?xml version="1.0" encoding="UTF-8" standalone="no"?>
<svg
   xmlns:dc="http://purl.org/dc/elements/1.1/"
   xmlns:cc="http://creativecommons.org/ns#"
   xmlns:rdf="http://www.w3.org/1999/02/22-rdf-syntax-ns#"
   xmlns:svg="http://www.w3.org/2000/svg"
   xmlns="http://www.w3.org/2000/svg"
   xmlns:xlink="http://www.w3.org/1999/xlink"
   xmlns:sodipodi="http://sodipodi.sourceforge.net/DTD/sodipodi-0.dtd"
   xmlns:inkscape="http://www.inkscape.org/namespaces/inkscape"
   viewBox="23 6 95 130.99985"
   version="1.1"
   id="svg4576"
   sodipodi:docname="FirebaseLogo.svg"
   width="95"
   height="130.99985"
   inkscape:version="0.92.5 (2060ec1f9f, 2020-04-08)">
  <metadata
     id="metadata4580">
    <rdf:RDF>
      <cc:Work
         rdf:about="">
        <dc:format>image/svg+xml</dc:format>
        <dc:type
           rdf:resource="http://purl.org/dc/dcmitype/StillImage" />
        <dc:title></dc:title>
      </cc:Work>
    </rdf:RDF>
  </metadata>
  <sodipodi:namedview
     pagecolor="#ffffff"
     bordercolor="#666666"
     borderopacity="1"
     objecttolerance="10"
     gridtolerance="10"
     guidetolerance="10"
     inkscape:pageopacity="0"
     inkscape:pageshadow="2"
     inkscape:window-width="1920"
     inkscape:window-height="1027"
     id="namedview4578"
     showgrid="false"
     fit-margin-top="0"
     fit-margin-left="0"
     fit-margin-right="0"
     fit-margin-bottom="0"
     inkscape:zoom="2.9829424"
     inkscape:cx="233.5"
     inkscape:cy="64.999875"
     inkscape:window-x="-8"
     inkscape:window-y="-8"
     inkscape:window-maximized="1"
     inkscape:current-layer="svg4576" />
  <defs
     id="defs4560">
    <linearGradient
       id="a"
       x1="24.289503"
       x2="140.66587"
       y1="24.096534"
       y2="108.74606"
       gradientTransform="scale(0.85158188,1.1742852)"
       gradientUnits="userSpaceOnUse">
      <stop
         offset="0%"
         stop-color="#fff"
         stop-opacity=".1"
         id="stop4550" />
      <stop
         offset="14%"
         stop-color="#fff"
         stop-opacity=".08"
         id="stop4552" />
      <stop
         offset="61%"
         stop-color="#fff"
         stop-opacity=".02"
         id="stop4554" />
      <stop
         offset="100%"
         stop-color="#fff"
         stop-opacity="0"
         id="stop4556" />
    </linearGradient>
    <path
       id="b"
       d="m 106.687,35.2742 c -0.186,-1.0977 -0.967,-2 -2.0244,-2.338 -1.0574,-0.338 -2.2148,-0.057 -3.0002,0.73 L 86.2473,49.166 74.1273,26.0205 C 73.614,25.0419 72.6023,24.4291 71.5,24.4291 c -1.1023,0 -2.114,0.6128 -2.6273,1.5914 L 62.245,38.6765 45.62,7.5726 C 45.017,6.4429 43.7612,5.8266 42.502,6.0429 41.2428,6.2592 40.2626,7.2589 40.0685,8.5256 L 24,111.701 66.9727,135.8664 c 2.6985,1.5113 5.985,1.5113 8.6836,0 L 119,111.701 106.687,35.274 Z"
       inkscape:connector-curvature="0" />
  </defs>
  <path
     d="M 22.8333,111.71867 38.9655,8.4905713 c 0.1972,-1.266 1.1818,-2.264 2.445,-2.4786 1.2632,-0.2146 2.522,0.4028 3.126,1.5327 L 61.22,38.661971 l 6.65,-12.6615 c 0.515,-0.979 1.5303,-1.592 2.6366,-1.592 1.1063,0 2.1215,0.613 2.6366,1.592 l 45.0227,85.717999 H 22.8333 Z"
     id="path4564"
     inkscape:connector-curvature="0"
     style="fill:#ffa000" />
  <path
     d="M 78.566,71.507371 61.2124,38.647171 22.8334,111.71867 Z"
     id="path4566"
     inkscape:connector-curvature="0"
     style="fill:#f57c00" />
  <path
     d="m 118.1666,111.71867 -12.356,-76.460299 c -0.1867,-1.098 -0.9703,-2 -2.0315,-2.34 -1.0612,-0.34 -2.2226,-0.057 -3.0107,0.7302 l -77.935,78.068999 43.1234,24.1834 c 2.708,1.512 6.006,1.512 8.714,0 l 43.4958,-24.1834 z"
     id="path4568"
     inkscape:connector-curvature="0"
     style="fill:#ffca28" />
  <path
     d="m 105.8105,35.258371 c -0.1867,-1.098 -0.9703,-2 -2.0315,-2.34 -1.0612,-0.34 -2.2226,-0.057 -3.0107,0.7302 L 85.3,49.156171 73.1365,25.999971 c -0.515,-0.979 -1.5303,-1.592 -2.6366,-1.592 -1.1063,0 -2.1215,0.613 -2.6366,1.592 l -6.65,12.6615 L 44.529,7.5446713 c -0.605,-1.1302 -1.8653,-1.7466 -3.13,-1.5304 -1.2647,0.2162 -2.246,1.2167 -2.441,2.4837 L 22.8333,111.71867 h -0.052 l 0.052,0.0596 0.4245,0.2085 77.488,-77.577499 c 0.7877,-0.7915 1.952,-1.076 3.016,-0.737 1.064,0.339 1.849,1.2445 2.0338,2.3457 l 12.2518,75.774999 0.1192,-0.0745 -12.356,-76.460299 z M 22.9748,111.57717 38.9655,9.2279713 c 0.1948,-1.267 1.1784,-2.2675 2.442,-2.4837 1.2636,-0.2162 2.524,0.4 3.13,1.5304 L 61.22,39.391971 l 6.65,-12.6615 c 0.515,-0.979 1.5303,-1.592 2.6366,-1.592 1.1063,0 2.1215,0.613 2.6366,1.592 l 11.9167,22.664 -62.0858,62.182699 z"
     id="path4570"
     inkscape:connector-curvature="0"
     style="fill:#ffffff;fill-opacity:0.2" />
  <path
     d="m 74.6708,135.17217 c -2.708,1.512 -6.006,1.512 -8.714,0 l -43.0192,-24.1162 -0.1043,0.663 43.1234,24.176 c 2.708,1.512 6.006,1.512 8.714,0 l 43.4958,-24.176 -0.1117,-0.6852 -43.384,24.1387 z"
     id="path4572"
     inkscape:connector-curvature="0"
     style="opacity:0.2;fill:#a52714" />
  <use
     xlink:href="#b"
     id="use4574"
     style="fill:url(#a)"
     x="0"
     y="0"
     width="100%"
     height="100%"
     transform="translate(-1,-2.8708544e-5)" />
</svg>
