<?xml version="1.0" encoding="UTF-8" standalone="no"?>
<svg
   xmlns:dc="http://purl.org/dc/elements/1.1/"
   xmlns:cc="http://creativecommons.org/ns#"
   xmlns:rdf="http://www.w3.org/1999/02/22-rdf-syntax-ns#"
   xmlns:svg="http://www.w3.org/2000/svg"
   xmlns="http://www.w3.org/2000/svg"
   xmlns:sodipodi="http://sodipodi.sourceforge.net/DTD/sodipodi-0.dtd"
   xmlns:inkscape="http://www.inkscape.org/namespaces/inkscape"
   viewBox="0 0 362.79999 411.39999"
   version="1.1"
   id="svg3857"
   sodipodi:docname="HTMLLogo.svg"
   width="362.79999"
   height="411.39999"
   inkscape:version="0.92.5 (2060ec1f9f, 2020-04-08)">
  <metadata
     id="metadata3863">
    <rdf:RDF>
      <cc:Work
         rdf:about="">
        <dc:format>image/svg+xml</dc:format>
        <dc:type
           rdf:resource="http://purl.org/dc/dcmitype/StillImage" />
        <dc:title>HTML5 Logo</dc:title>
      </cc:Work>
    </rdf:RDF>
  </metadata>
  <defs
     id="defs3861">
    <clipPath
       clipPathUnits="userSpaceOnUse"
       id="clipPath3867">
      <rect
         id="rect3869"
         width="675.94086"
         height="478.37109"
         x="-50.443348"
         y="71.461411" />
    </clipPath>
    <clipPath
       clipPathUnits="userSpaceOnUse"
       id="clipPath3871">
      <rect
         id="rect3873"
         width="675.94086"
         height="478.37109"
         x="-50.443348"
         y="71.461411" />
    </clipPath>
    <clipPath
       clipPathUnits="userSpaceOnUse"
       id="clipPath3875">
      <rect
         id="rect3877"
         width="675.94086"
         height="478.37109"
         x="-50.443348"
         y="71.461411" />
    </clipPath>
    <clipPath
       clipPathUnits="userSpaceOnUse"
       id="clipPath3879">
      <rect
         id="rect3881"
         width="675.94086"
         height="478.37109"
         x="-50.443348"
         y="71.461411" />
    </clipPath>
    <clipPath
       clipPathUnits="userSpaceOnUse"
       id="clipPath3883">
      <rect
         id="rect3885"
         width="675.94086"
         height="478.37109"
         x="-50.443348"
         y="71.461411" />
    </clipPath>
  </defs>
  <sodipodi:namedview
     pagecolor="#ffffff"
     bordercolor="#666666"
     borderopacity="1"
     objecttolerance="10"
     gridtolerance="10"
     guidetolerance="10"
     inkscape:pageopacity="0"
     inkscape:pageshadow="2"
     inkscape:window-width="2560"
     inkscape:window-height="1387"
     id="namedview3859"
     showgrid="false"
     fit-margin-top="2.7755576e-17"
     fit-margin-left="2.7755576e-17"
     fit-margin-right="2.7755576e-17"
     fit-margin-bottom="2.7755576e-17"
     inkscape:zoom="1.1894531"
     inkscape:cx="39.948346"
     inkscape:cy="170.1573"
     inkscape:window-x="1912"
     inkscape:window-y="-8"
     inkscape:window-maximized="1"
     inkscape:current-layer="svg3857" />
  <title
     id="title3845">HTML5 Logo</title>
  <path
     d="m 108.4,0 h 23 v 22.8 h 21.2 V 0 h 23 v 69 h -23 V 46 h -21 V 69 H 108.4 M 206,23 H 185.7 V 0 h 63.7 V 23 H 229 V 69 H 206 M 259.5,0 h 24.1 L 298.4,24.3 313.2,0 h 24.1 v 69 h -23 V 34.8 L 298.2,59.6 282.1,34.8 V 69 H 259.5 M 348.7,0 h 23 v 46.2 h 32.6 V 69 h -55.6"
     id="path3847"
     clip-path="url(#clipPath3883)"
     inkscape:connector-curvature="0"
     transform="translate(-74.6,-100.6)" />
  <path
     d="M 107.6,471 74.6,100.6 H 437.4 L 404.4,470.8 255.7,512"
     id="path3849"
     clip-path="url(#clipPath3879)"
     inkscape:connector-curvature="0"
     style="fill:#e44d26"
     transform="translate(-74.6,-100.6)" />
  <path
     d="M 256,480.5 V 131 H 404.3 L 376,447"
     id="path3851"
     clip-path="url(#clipPath3875)"
     inkscape:connector-curvature="0"
     style="fill:#f16529"
     transform="translate(-74.6,-100.6)" />
  <path
     d="m 142,176.3 h 114 v 45.4 h -64.2 l 4.2,46.5 h 60 v 45.3 H 154.4 m 2,22.8 H 202 l 3.2,36.3 50.8,13.6 v 47.4 l -93.2,-26"
     id="path3853"
     clip-path="url(#clipPath3871)"
     inkscape:connector-curvature="0"
     style="fill:#ebebeb"
     transform="translate(-74.6,-100.6)" />
  <path
     d="M 369.6,176.3 H 255.8 v 45.4 h 109.6 m -4.1,46.5 H 255.8 v 45.4 h 56 l -5.3,59 -50.7,13.6 v 47.2 l 93,-25.8"
     id="path3855"
     clip-path="url(#clipPath3867)"
     inkscape:connector-curvature="0"
     style="fill:#ffffff"
     transform="translate(-74.6,-100.6)" />
</svg>
