<?xml version="1.0" encoding="UTF-8" standalone="no"?>
<!-- Generator: Adobe Illustrator 17.1.0, SVG Export Plug-In . SVG Version: 6.00 Build 0)  -->

<svg
   xmlns:dc="http://purl.org/dc/elements/1.1/"
   xmlns:cc="http://creativecommons.org/ns#"
   xmlns:rdf="http://www.w3.org/1999/02/22-rdf-syntax-ns#"
   xmlns:svg="http://www.w3.org/2000/svg"
   xmlns="http://www.w3.org/2000/svg"
   xmlns:sodipodi="http://sodipodi.sourceforge.net/DTD/sodipodi-0.dtd"
   xmlns:inkscape="http://www.inkscape.org/namespaces/inkscape"
   version="1.1"
   id="Layer_1"
   x="0px"
   y="0px"
   viewBox="0 0 51.487619 49.303301"
   enable-background="new 0 0 278.4 70.7"
   xml:space="preserve"
   sodipodi:docname="jQueryLogo.svg"
   width="51.487617"
   height="49.303299"
   inkscape:version="0.92.5 (2060ec1f9f, 2020-04-08)"><metadata
   id="metadata174"><rdf:RDF><cc:Work
       rdf:about=""><dc:format>image/svg+xml</dc:format><dc:type
         rdf:resource="http://purl.org/dc/dcmitype/StillImage" /><dc:title></dc:title></cc:Work></rdf:RDF></metadata><defs
   id="defs172"><clipPath
     clipPathUnits="userSpaceOnUse"
     id="clipPath178"><rect
       style="fill:none"
       id="rect180"
       width="60.41201"
       height="84.387535"
       x="-7.0980167"
       y="-6.7472534" /></clipPath><clipPath
     clipPathUnits="userSpaceOnUse"
     id="clipPath182"><rect
       style="fill:none"
       id="rect184"
       width="60.41201"
       height="84.387535"
       x="-7.0980167"
       y="-6.7472534" /></clipPath><clipPath
     clipPathUnits="userSpaceOnUse"
     id="clipPath186"><rect
       style="fill:none"
       id="rect188"
       width="60.41201"
       height="84.387535"
       x="-7.0980167"
       y="-6.7472534" /></clipPath><clipPath
     clipPathUnits="userSpaceOnUse"
     id="clipPath190"><rect
       style="fill:none"
       id="rect192"
       width="60.41201"
       height="84.387535"
       x="-7.0980167"
       y="-6.7472534" /></clipPath><clipPath
     clipPathUnits="userSpaceOnUse"
     id="clipPath194"><rect
       style="fill:none"
       id="rect196"
       width="60.41201"
       height="84.387535"
       x="-7.0980167"
       y="-6.7472534" /></clipPath><clipPath
     clipPathUnits="userSpaceOnUse"
     id="clipPath198"><rect
       style="fill:none"
       id="rect200"
       width="60.41201"
       height="84.387535"
       x="-7.0980167"
       y="-6.7472534" /></clipPath><clipPath
     clipPathUnits="userSpaceOnUse"
     id="clipPath202"><rect
       style="fill:none"
       id="rect204"
       width="60.41201"
       height="84.387535"
       x="-7.0980167"
       y="-6.7472534" /></clipPath><clipPath
     clipPathUnits="userSpaceOnUse"
     id="clipPath206"><rect
       style="fill:none"
       id="rect208"
       width="60.41201"
       height="84.387535"
       x="-7.0980167"
       y="-6.7472534" /></clipPath><clipPath
     clipPathUnits="userSpaceOnUse"
     id="clipPath210"><rect
       style="fill:none"
       id="rect212"
       width="60.41201"
       height="84.387535"
       x="-7.0980167"
       y="-6.7472534" /></clipPath><clipPath
     clipPathUnits="userSpaceOnUse"
     id="clipPath214"><rect
       style="fill:none"
       id="rect216"
       width="60.41201"
       height="84.387535"
       x="-7.0980167"
       y="-6.7472534" /></clipPath><clipPath
     clipPathUnits="userSpaceOnUse"
     id="clipPath218"><rect
       style="fill:none"
       id="rect220"
       width="60.41201"
       height="84.387535"
       x="-7.0980167"
       y="-6.7472534" /></clipPath><clipPath
     clipPathUnits="userSpaceOnUse"
     id="clipPath222"><rect
       style="fill:none"
       id="rect224"
       width="60.41201"
       height="84.387535"
       x="-7.0980167"
       y="-6.7472534" /></clipPath><clipPath
     clipPathUnits="userSpaceOnUse"
     id="clipPath226"><rect
       style="fill:none"
       id="rect228"
       width="60.41201"
       height="84.387535"
       x="-7.0980167"
       y="-6.7472534" /></clipPath><clipPath
     clipPathUnits="userSpaceOnUse"
     id="clipPath230"><rect
       style="fill:none"
       id="rect232"
       width="60.41201"
       height="84.387535"
       x="-7.0980167"
       y="-6.7472534" /></clipPath><clipPath
     clipPathUnits="userSpaceOnUse"
     id="clipPath234"><rect
       style="fill:none"
       id="rect236"
       width="60.41201"
       height="84.387535"
       x="-7.0980167"
       y="-6.7472534" /></clipPath><clipPath
     clipPathUnits="userSpaceOnUse"
     id="clipPath238"><rect
       style="fill:none"
       id="rect240"
       width="60.41201"
       height="84.387535"
       x="-7.0980167"
       y="-6.7472534" /></clipPath><clipPath
     clipPathUnits="userSpaceOnUse"
     id="clipPath242"><rect
       style="fill:none"
       id="rect244"
       width="60.41201"
       height="84.387535"
       x="-7.0980167"
       y="-6.7472534" /></clipPath><clipPath
     clipPathUnits="userSpaceOnUse"
     id="clipPath246"><rect
       style="fill:none"
       id="rect248"
       width="60.41201"
       height="84.387535"
       x="-7.0980167"
       y="-6.7472534" /></clipPath><clipPath
     clipPathUnits="userSpaceOnUse"
     id="clipPath250"><rect
       style="fill:none"
       id="rect252"
       width="60.41201"
       height="84.387535"
       x="-7.0980167"
       y="-6.7472534" /></clipPath><clipPath
     clipPathUnits="userSpaceOnUse"
     id="clipPath254"><rect
       style="fill:none"
       id="rect256"
       width="60.41201"
       height="84.387535"
       x="-7.0980167"
       y="-6.7472534" /></clipPath></defs><sodipodi:namedview
   pagecolor="#ffffff"
   bordercolor="#666666"
   borderopacity="1"
   objecttolerance="10"
   gridtolerance="10"
   guidetolerance="10"
   inkscape:pageopacity="0"
   inkscape:pageshadow="2"
   inkscape:window-width="2560"
   inkscape:window-height="1387"
   id="namedview170"
   showgrid="false"
   fit-margin-top="0"
   fit-margin-left="0"
   fit-margin-right="0"
   fit-margin-bottom="0"
   inkscape:zoom="6.339799"
   inkscape:cx="139.18761"
   inkscape:cy="15.9533"
   inkscape:window-x="1912"
   inkscape:window-y="-8"
   inkscape:window-maximized="1"
   inkscape:current-layer="Layer_1" />
<g
   id="g129"
   clip-path="url(#clipPath254)"
   transform="translate(-0.01238433,-2)">
	<g
   id="g127">
		<path
   d="m 107.2,63 c 0,0.6 -0.1,1.2 -0.1,1.9 l 2.5,-4.5 -0.3,-1.5 2.5,-0.4 0.9,6.3 1.1,-3.9 c 0.1,-0.4 0.1,-0.7 0.1,-1 0,-0.3 0,-0.6 -0.1,-1 l 2.6,-0.5 c 0.1,0.5 0.2,1 0.1,1.5 0,0.6 -0.2,1.3 -0.6,2.4 l -2.1,5.7 h -3.1 L 110,63.8 107.6,68 h -3 c 0.1,-3.9 0,-6.4 -0.3,-9 l 2.6,-0.4 c 0.3,1.3 0.4,2.8 0.3,4.4 z"
   id="path93"
   inkscape:connector-curvature="0"
   style="fill:#0769ad" />
		<path
   d="m 123.4,60.8 c -1.2,0.6 -1.7,0.9 -2.8,1.6 l -1.2,5.5 h -2.7 l 1.9,-9.1 2.4,-0.4 -0.1,1.3 c 0.9,-0.5 1.7,-0.9 2.5,-1.3 z"
   id="path95"
   inkscape:connector-curvature="0"
   style="fill:#0769ad" />
		<path
   d="m 125,58.8 2.8,-0.4 -2,9.5 h -2.7 z m 0.9,-4.1 2.8,-0.4 -0.6,2.9 -2.8,0.4 z"
   id="path97"
   inkscape:connector-curvature="0"
   style="fill:#0769ad" />
		<path
   d="m 132.8,60.7 -1,4.6 c 0,0.1 0,0.2 0,0.2 0,0.1 0.1,0.2 0.3,0.2 0.5,0 1,-0.2 1.5,-0.4 l 0.5,1.9 c -0.8,0.4 -1.9,0.8 -3,0.8 -1.4,0 -2.1,-0.7 -2,-1.8 0,-0.1 0,-0.3 0.1,-0.4 l 1.1,-5.2 h -1.4 l 0.5,-2.2 h 1.4 l 0.5,-2.2 2.8,-0.4 -0.5,2.6 h 2.2 l -0.6,2.2 h -2.4 z"
   id="path99"
   inkscape:connector-curvature="0"
   style="fill:#0769ad" />
		<path
   d="m 136,61.9 c 0.5,-2.1 1.5,-3.5 4.4,-3.5 1.8,0 3.1,0.8 3,2.3 -0.1,1.8 -1,2.7 -3.3,3.3 -1.1,0.3 -1.2,0.3 -2,0.6 l -0.1,0.6 c -0.1,0.3 0,0.7 0.5,0.7 1,0 2.4,-0.5 3.7,-1 l 0.4,1.9 c -1.2,0.7 -3,1.3 -4.6,1.3 -1.9,0 -2.7,-0.8 -2.7,-2.4 0,-0.3 0.1,-0.7 0.2,-1.1 z m 4.9,-0.9 c 0,-0.3 -0.3,-0.5 -0.8,-0.5 -1,0 -1.3,0.6 -1.4,1.3 l -0.1,0.7 c 0.5,-0.1 0.7,-0.2 1.2,-0.3 0.7,-0.3 1.1,-0.6 1.1,-1.2 z"
   id="path101"
   inkscape:connector-curvature="0"
   style="fill:#0769ad" />
		<path
   d="m 150.4,54.8 2.8,-0.4 -2.8,13.5 h -2.7 z"
   id="path103"
   inkscape:connector-curvature="0"
   style="fill:#0769ad" />
		<path
   d="m 153.5,61.9 c 0.5,-2.1 1.5,-3.5 4.4,-3.5 1.8,0 3.1,0.8 3,2.3 -0.1,1.8 -1,2.7 -3.3,3.3 -1.1,0.3 -1.2,0.3 -2,0.6 l -0.1,0.6 c -0.1,0.3 0,0.7 0.5,0.7 1,0 2.4,-0.5 3.7,-1 l 0.4,1.9 c -1.2,0.7 -3,1.3 -4.6,1.3 -1.9,0 -2.7,-0.8 -2.7,-2.4 0,-0.3 0.1,-0.7 0.2,-1.1 z m 4.9,-0.9 c 0,-0.3 -0.3,-0.5 -0.8,-0.5 -1,0 -1.3,0.6 -1.4,1.3 l -0.1,0.7 c 0.5,-0.1 0.7,-0.2 1.2,-0.3 0.7,-0.3 1.1,-0.6 1.1,-1.2 z"
   id="path105"
   inkscape:connector-curvature="0"
   style="fill:#0769ad" />
		<path
   d="m 161.2,67.5 0.6,-2 c 0.7,0.2 1.5,0.5 2.5,0.5 0.9,0 1,-0.3 1.1,-0.7 0.1,-0.4 -0.2,-0.6 -1.2,-1.2 -1.9,-1 -2,-1.7 -1.7,-3.1 0.4,-2 1,-2.5 3.6,-2.5 0.9,0 2,0.2 2.8,0.4 l -0.5,2 c -0.7,-0.2 -1.7,-0.3 -2.3,-0.3 -0.8,0 -0.9,0.1 -1,0.6 -0.1,0.4 0,0.5 0.9,1 2.1,1.1 2.4,1.5 2.1,3 -0.5,2.1 -1.1,2.9 -3.9,2.9 -1,0 -2.2,-0.3 -3,-0.6 z"
   id="path107"
   inkscape:connector-curvature="0"
   style="fill:#0769ad" />
		<path
   d="m 168.9,67.5 0.6,-2 c 0.7,0.2 1.5,0.5 2.5,0.5 0.9,0 1,-0.3 1.1,-0.7 0.1,-0.4 -0.2,-0.6 -1.2,-1.2 -1.9,-1 -2,-1.7 -1.7,-3.1 0.4,-2 1,-2.5 3.6,-2.5 0.9,0 2,0.2 2.8,0.4 l -0.5,2 c -0.7,-0.2 -1.7,-0.3 -2.3,-0.3 -0.8,0 -0.9,0.1 -1,0.6 -0.1,0.4 0,0.5 0.9,1 2.1,1.1 2.4,1.5 2.1,3 -0.5,2.1 -1.1,2.9 -3.9,2.9 -1,0 -2.2,-0.3 -3,-0.6 z"
   id="path109"
   inkscape:connector-curvature="0"
   style="fill:#0769ad" />
		<path
   d="m 176.3,70 1.5,-2.1 h -1 l 0.7,-3.2 h 2.7 l -0.7,3.4 -2.2,2.6 z"
   id="path111"
   inkscape:connector-curvature="0"
   style="fill:#0769ad" />
		<path
   d="m 191,67.9 v -0.8 c -0.7,0.6 -1.7,1 -3,1 -2,0 -2.5,-1.2 -2,-3.3 l 0.5,-2.5 c 0.5,-2.2 1.1,-3.9 5,-3.9 0.3,0 0.9,0 1.1,0.1 l 0.8,-3.7 2.8,-0.4 -2.8,13.5 z m -2.5,-2.8 c -0.1,0.5 0,0.7 0.5,0.7 1,0 1.7,-0.5 2.2,-1 l 0.9,-4.1 c -0.3,-0.1 -0.7,-0.1 -1,-0.1 -1.4,0 -1.7,0.7 -1.9,1.6 z"
   id="path113"
   inkscape:connector-curvature="0"
   style="fill:#0769ad" />
		<path
   d="m 195.8,65 c 0,-0.2 0,-0.4 0.1,-0.7 l 0.5,-2.2 c 0.5,-2.4 1.7,-3.8 5,-3.8 2.5,0 3.6,1.4 3.5,3.1 0,0.2 0,0.4 -0.1,0.7 l -0.5,2.2 c -0.5,2.2 -1.6,3.8 -5,3.8 -2.4,0 -3.6,-1.4 -3.5,-3.1 z m 6.3,-3.3 c 0,-0.7 -0.4,-1.1 -1.3,-1.1 -1,0 -1.6,0.5 -1.8,1.4 l -0.5,2.3 c 0,0.1 0,0.3 -0.1,0.4 0,0.7 0.4,1.1 1.3,1.1 1,0 1.6,-0.5 1.8,-1.4 l 0.5,-2.3 c 0.1,-0.2 0.1,-0.3 0.1,-0.4 z"
   id="path115"
   inkscape:connector-curvature="0"
   style="fill:#0769ad" />
		<path
   d="m 221.3,61.6 c 0,-0.1 0,-0.2 0,-0.3 0,-0.2 -0.1,-0.3 -0.4,-0.3 -0.5,0 -1.7,0.5 -2.5,0.9 l -1.3,6 h -2.7 l 1.3,-6.3 c 0,-0.1 0,-0.2 0,-0.3 0,-0.2 -0.1,-0.3 -0.4,-0.3 -0.5,0 -1.7,0.5 -2.4,0.9 l -1.3,6 h -2.7 l 1.9,-9.1 2.4,-0.4 -0.1,1 c 1.5,-0.7 2.6,-1.1 3.7,-1.1 0.9,0 1.4,0.4 1.6,1.1 1.4,-0.8 2.7,-1.1 3.8,-1.1 1.2,0 1.7,0.7 1.6,1.9 0,0.3 0,0.7 -0.1,1.1 l -1.4,6.5 H 220 Z"
   id="path117"
   inkscape:connector-curvature="0"
   style="fill:#0769ad" />
		<path
   d="m 225.1,65 c 0,-0.2 0,-0.4 0.1,-0.7 l 0.5,-2.2 c 0.5,-2.4 1.7,-3.8 5,-3.8 2.5,0 3.6,1.4 3.5,3.1 0,0.2 0,0.4 -0.1,0.7 l -0.5,2.2 c -0.5,2.2 -1.6,3.8 -5,3.8 -2.4,0 -3.6,-1.4 -3.5,-3.1 z m 6.3,-3.3 c 0,-0.7 -0.4,-1.1 -1.3,-1.1 -1,0 -1.6,0.5 -1.8,1.4 l -0.5,2.3 c 0,0.1 0,0.3 -0.1,0.4 0,0.7 0.4,1.1 1.3,1.1 1,0 1.6,-0.5 1.8,-1.4 l 0.5,-2.3 c 0.1,-0.2 0.1,-0.3 0.1,-0.4 z"
   id="path119"
   inkscape:connector-curvature="0"
   style="fill:#0769ad" />
		<path
   d="m 241.2,60.8 c -1.2,0.6 -1.7,0.9 -2.8,1.6 l -1.2,5.5 h -2.7 l 1.9,-9.1 2.4,-0.4 -0.1,1.3 c 0.9,-0.5 1.7,-0.9 2.5,-1.3 z"
   id="path121"
   inkscape:connector-curvature="0"
   style="fill:#0769ad" />
		<path
   d="m 241.9,61.9 c 0.5,-2.1 1.5,-3.5 4.4,-3.5 1.8,0 3.1,0.8 3,2.3 -0.1,1.8 -1,2.7 -3.3,3.3 -1.1,0.3 -1.2,0.3 -2,0.6 l -0.1,0.6 c -0.1,0.3 0,0.7 0.5,0.7 1,0 2.4,-0.5 3.7,-1 l 0.4,1.9 c -1.2,0.7 -3,1.3 -4.6,1.3 -1.9,0 -2.7,-0.8 -2.7,-2.4 0,-0.3 0.1,-0.7 0.2,-1.1 z m 4.9,-0.9 c 0,-0.3 -0.3,-0.5 -0.8,-0.5 -1,0 -1.3,0.6 -1.4,1.3 l -0.1,0.7 c 0.5,-0.1 0.7,-0.2 1.2,-0.3 0.7,-0.3 1,-0.6 1.1,-1.2 z"
   id="path123"
   inkscape:connector-curvature="0"
   style="fill:#0769ad" />
		<path
   d="m 250.4,64.7 h 2.7 l -0.7,3.2 h -2.7 z"
   id="path125"
   inkscape:connector-curvature="0"
   style="fill:#0769ad" />
	</g>
</g>
<path
   d="m 3.3,13.4 c -4.6,6.5 -4,15.1 -0.5,22 0,0.2 0.1,0.4 0.2,0.6 0,0.1 0.1,0.2 0.2,0.3 0,0.1 0.1,0.1 0.1,0.2 0.1,0.1 0.1,0.2 0.2,0.3 0.1,0.2 0.2,0.4 0.3,0.6 0.1,0.1 0.1,0.2 0.2,0.3 0.1,0.2 0.3,0.4 0.4,0.6 0.1,0.1 0.1,0.2 0.2,0.3 0.2,0.3 0.4,0.5 0.6,0.8 0,0 0,0 0,0 0,0 0.1,0.1 0.1,0.1 0.2,0.2 0.3,0.5 0.5,0.7 0.1,0.1 0.1,0.2 0.2,0.2 0.2,0.2 0.3,0.4 0.5,0.6 0.1,0.1 0.1,0.1 0.2,0.2 0.2,0.3 0.4,0.5 0.7,0.7 0,0 0,0 0,0 0,0 0,0 0,0 0.2,0.2 0.4,0.5 0.7,0.7 0.1,0.1 0.1,0.1 0.2,0.2 0.2,0.2 0.3,0.3 0.5,0.5 0.1,0.1 0.1,0.1 0.2,0.2 0.2,0.2 0.5,0.4 0.7,0.7 0,0 0,0 0,0 0,0 0.1,0.1 0.1,0.1 0.2,0.2 0.4,0.4 0.7,0.6 0.1,0.1 0.2,0.1 0.3,0.2 0.2,0.1 0.4,0.3 0.6,0.4 0.1,0.1 0.2,0.1 0.3,0.2 0.2,0.2 0.4,0.3 0.6,0.4 0.1,0.1 0.1,0.1 0.2,0.2 0,0 0,0 0.1,0 0.2,0.1 0.4,0.3 0.6,0.4 0.1,0.1 0.2,0.1 0.3,0.2 0.3,0.2 0.6,0.4 0.9,0.6 0.1,0 0.2,0.1 0.3,0.1 0.2,0.1 0.5,0.3 0.7,0.4 0.1,0.1 0.3,0.1 0.4,0.2 0.2,0.1 0.3,0.2 0.5,0.3 0,0 0.1,0 0.1,0.1 0.1,0 0.1,0.1 0.2,0.1 0.3,0.1 0.5,0.3 0.8,0.4 0.1,0 0.1,0 0.2,0.1 0.3,0.1 0.6,0.3 0.9,0.4 0.1,0 0.1,0.1 0.2,0.1 0.3,0.1 0.6,0.2 0.9,0.3 0,0 0.1,0 0.1,0 0.3,0.1 0.7,0.2 1,0.3 0.1,0 0.2,0.1 0.2,0.1 0.3,0.1 0.7,0.2 1,0.3 22,4 28.4,-13.2 28.4,-13.2 -5.4,7 -14.9,8.8 -24,6.8 -0.3,-0.1 -0.7,-0.2 -1,-0.3 -0.1,0 -0.2,0 -0.2,-0.1 -0.3,-0.1 -0.7,-0.2 -1,-0.3 0,0 -0.1,0 -0.1,-0.1 -0.3,-0.1 -0.6,-0.2 -0.9,-0.3 -0.1,0 -0.2,-0.1 -0.2,-0.1 C 22.6,43 22.3,42.8 22,42.7 21.9,42.7 21.9,42.6 21.8,42.6 21.5,42.5 21.3,42.4 21,42.2 20.9,42.2 20.9,42.1 20.8,42.1 20.6,42 20.4,41.9 20.2,41.8 20.1,41.7 19.9,41.7 19.8,41.6 19.6,41.5 19.3,41.3 19.1,41.2 19,41.1 18.9,41.1 18.9,41.1 18.6,40.9 18.3,40.7 18,40.5 17.9,40.4 17.8,40.4 17.7,40.3 17.5,40.2 17.2,40 17,39.9 16.9,39.8 16.9,39.8 16.8,39.7 16.6,39.6 16.4,39.4 16.2,39.2 16.1,39.1 16,39.1 15.9,39 15.7,38.9 15.5,38.7 15.3,38.6 15.2,38.5 15.1,38.5 15,38.4 14.8,38.2 14.5,38 14.3,37.8 c 0,0 -0.1,0 -0.1,-0.1 -0.2,-0.2 -0.5,-0.5 -0.7,-0.7 -0.1,-0.1 -0.1,-0.1 -0.2,-0.2 -0.2,-0.2 -0.4,-0.3 -0.5,-0.5 -0.1,-0.1 -0.1,-0.1 -0.2,-0.2 -0.2,-0.2 -0.4,-0.5 -0.7,-0.7 0,0 0,0 0,0 C 11.7,35.2 11.5,34.9 11.2,34.6 11.1,34.5 11.1,34.5 11,34.4 10.8,34.2 10.7,34 10.5,33.8 10.4,33.7 10.4,33.7 10.3,33.6 10,33.5 9.8,33.2 9.6,33 4.6,26.2 2.8,16.7 6.8,9"
   id="path131"
   clip-path="url(#clipPath250)"
   inkscape:connector-curvature="0"
   style="fill:#0769ad"
   transform="translate(-0.01238433,-2)" />
<path
   d="M 17.4,7.9 C 14.1,12.7 14.3,19 16.9,24 c 0.4,0.8 0.9,1.7 1.5,2.4 0.5,0.7 1,1.5 1.7,2.1 0.2,0.3 0.5,0.5 0.7,0.8 0.1,0.1 0.1,0.1 0.2,0.2 0.2,0.2 0.5,0.5 0.8,0.7 0,0 0,0 0,0 0,0 0,0 0,0 0.3,0.3 0.6,0.5 0.9,0.7 0.1,0.1 0.1,0.1 0.2,0.2 0.3,0.2 0.6,0.5 0.9,0.7 0,0 0,0 0,0 0.1,0.1 0.3,0.2 0.4,0.3 0.1,0 0.1,0.1 0.2,0.1 0.2,0.1 0.5,0.3 0.7,0.4 0,0 0.1,0 0.1,0.1 0.2,0.1 0.4,0.2 0.6,0.3 0.1,0 0.1,0.1 0.2,0.1 0.1,0.1 0.3,0.1 0.4,0.2 0,0 0,0 0.1,0 0.3,0.1 0.6,0.3 0.9,0.4 0.1,0 0.1,0.1 0.2,0.1 0.2,0.1 0.5,0.2 0.7,0.3 0.1,0 0.2,0.1 0.3,0.1 0.2,0.1 0.4,0.2 0.7,0.2 0.1,0 0.2,0.1 0.3,0.1 0.3,0.1 0.6,0.2 1,0.3 17,2.8 20.9,-10.3 20.9,-10.3 -3.5,5.1 -10.4,7.5 -17.7,5.6 -0.3,-0.1 -0.6,-0.2 -1,-0.3 -0.1,0 -0.2,-0.1 -0.3,-0.1 -0.2,-0.1 -0.5,-0.1 -0.7,-0.2 -0.1,0 -0.2,-0.1 -0.3,-0.1 C 31.3,29.3 31,29.2 30.8,29.1 30.7,29.1 30.7,29 30.6,29 30.3,28.9 30,28.7 29.7,28.6 29.6,28.5 29.4,28.4 29.3,28.4 29.2,28.4 29.1,28.3 29,28.3 28.8,28.2 28.6,28.1 28.4,28 c 0,0 -0.1,0 -0.1,-0.1 -0.2,-0.1 -0.5,-0.3 -0.7,-0.4 -0.1,0 -0.1,-0.1 -0.2,-0.1 C 27.3,27.3 27.1,27.2 27,27.1 26.7,26.9 26.4,26.7 26.1,26.4 26,26.3 26,26.3 25.9,26.2 22.7,23.7 20.2,20.2 19,16.3 17.7,12.2 18,7.7 20.2,4"
   id="path133"
   clip-path="url(#clipPath246)"
   inkscape:connector-curvature="0"
   style="fill:#0769ad"
   transform="translate(-0.01238433,-2)" />
<path
   d="m 29.3,3.8 c -1.9,2.9 -2.1,6.4 -0.8,9.6 1.4,3.4 4.3,6 7.7,7.2 0.1,0.1 0.3,0.1 0.4,0.1 0.1,0 0.1,0 0.2,0.1 0.2,0.1 0.4,0.1 0.6,0.2 9.4,1.8 11.9,-4.8 12.6,-5.8 -2.2,3.2 -6,4 -10.6,2.9 C 39,18 38.6,17.9 38.3,17.8 37.9,17.6 37.4,17.5 37,17.3 36.2,16.9 35.4,16.4 34.7,15.9 30.6,12.8 28,6.8 30.7,2"
   id="path135"
   clip-path="url(#clipPath242)"
   inkscape:connector-curvature="0"
   style="fill:#0769ad"
   transform="translate(-0.01238433,-2)" />
<path
   d="m 247,17.2 0.4,1.6 c 0.1,0.4 -0.2,0.8 -0.6,0.8"
   id="path137"
   clip-path="url(#clipPath238)"
   inkscape:connector-curvature="0"
   style="fill:#333333"
   transform="translate(-0.01238433,-2)" />
<path
   d="m 217.4,14.5 c -0.1,0.4 -0.2,1 -0.3,1.3 l -3.3,15.2 3.4,-16 z"
   id="path139"
   clip-path="url(#clipPath234)"
   inkscape:connector-curvature="0"
   style="fill:#333333"
   transform="translate(-0.01238433,-2)" />
<polygon
   points="120,24.7 118.2,31.1 "
   id="polygon141"
   clip-path="url(#clipPath230)"
   style="fill:#333333"
   transform="translate(-0.01238433,-2)" />
<path
   d="m 247.4,18.8 -0.9,-4 c -0.7,-2.9 -2.8,-4.2 -7.5,-4.2 h -19.8 c -0.5,0 -0.9,0.2 -1,0.7 l -7.5,35.6 c -0.1,0.5 -0.1,0.8 -0.1,1 0.1,0.2 0.9,0.2 1.4,0.2 h 6.9 c 0.5,0 1.3,0 1.5,-0.1 0.3,-0.1 0.4,-0.8 0.5,-1.2 l 2.4,-12.5 3,-13.9 c 0.1,-0.4 0.5,-0.8 1,-0.8 h 19.6 c 0.3,0 0.6,-0.4 0.5,-0.8"
   id="path143"
   clip-path="url(#clipPath226)"
   inkscape:connector-curvature="0"
   style="fill:#333333"
   transform="translate(-0.01238433,-2)" />
<path
   d="m 275.3,4.3 c -0.5,0 -8.7,0 -8.7,0 -0.5,0 -1,0.5 -1.3,0.9 L 250,27.6 c -0.3,0.4 -0.6,0.4 -0.7,-0.1 l -1.1,-4.9 c -0.1,-0.4 -0.6,-0.8 -1,-0.8 h -9.8 c -0.5,0 -0.7,0.4 -0.6,0.8 l 4.4,15.4 c 0.1,0.4 0.1,1.2 0,1.6 l -2.1,7.8 c -0.1,0.4 0.2,0.6 0.6,0.6 h 9.7 c 0.5,0 0.9,-0.1 1,-0.6 l 2.1,-7.9 c 0.1,-0.4 0.4,-1 0.7,-1.4 l 24.9,-33 c 0.3,-0.4 0.2,-0.8 -0.2,-0.8 z"
   id="path145"
   clip-path="url(#clipPath222)"
   inkscape:connector-curvature="0"
   style="fill:#333333"
   transform="translate(-0.01238433,-2)" />
<path
   d="m 173.1,10.6 h -8.9 c -0.5,0 -0.9,0.2 -1,0.6 l -2.9,13.7 -2.9,13.1 c -0.1,0.4 -0.5,0.4 -1,0.4 h -5.8 c -5.8,0 -5.1,-3.6 -3.9,-9.1 0,-0.1 3.7,-18.1 3.7,-18.1 0.1,-0.4 -0.2,-0.6 -0.7,-0.6 h -8.4 c -0.5,0 -0.9,0.2 -1,0.6 l -3.4,18.1 c -1.7,9.8 -1.7,18.4 9.6,18.7 0.2,0 17.9,0 17.9,0 0.5,0 0.9,-0.2 1,-0.6 l 3.9,-18.2 3.8,-18.2 c 0,0 0.2,-0.4 0,-0.4 z"
   id="path147"
   clip-path="url(#clipPath218)"
   inkscape:connector-curvature="0"
   style="fill:#333333"
   transform="translate(-0.01238433,-2)" />
<path
   d="m 84.9,10.6 h -9.5 c -0.5,0 -0.9,0.1 -1,0.6 l -1.7,7.4 c -0.1,0.4 0.2,0.8 0.7,0.8 h 9.1 c 0.5,0 0.9,-0.4 1,-0.9 L 85.1,11 c 0,0 0.2,-0.4 -0.2,-0.4 z"
   id="path149"
   clip-path="url(#clipPath214)"
   inkscape:connector-curvature="0"
   style="fill:#333333"
   transform="translate(-0.01238433,-2)" />
<path
   d="m 72.8,21.8 c -0.5,0 -0.9,0.4 -1,0.8 l -1.3,5.7 -2.9,13.1 c 0,0 -1.5,6.9 -1.7,7.4 0,0 -1.3,5 -4.3,4.8 -1.4,-0.1 -3,-0.4 -3,-0.4 v 0 c -0.9,-0.3 -0.9,0.6 -1,1.1 l -1.9,8.1 c -0.1,0.4 0.2,0.8 0.6,0.9 0,0 4.1,0.6 7,0.6 h 0.5 c 7.1,0 10.9,-4.2 13.3,-15.6 L 79.9,35 82.5,22.7 c 0.1,-0.4 -0.2,-0.9 -0.6,-0.9"
   id="path151"
   clip-path="url(#clipPath210)"
   inkscape:connector-curvature="0"
   style="fill:#333333"
   transform="translate(-0.01238433,-2)" />
<path
   d="m 195.5,10.5 c -16,0 -19.8,9.9 -21.9,19.6 -2.1,10 -1.9,17.9 14.6,17.9 h 0.6 c 6.6,0 14.5,0 14.5,0 0.4,0 0.9,-0.4 1,-0.9 l 1.6,-6.3 c 0.1,-0.4 -0.2,-0.6 -0.7,-0.6 h -14.9 c -5.4,0 -7.3,-1.7 -7.1,-5.4 0,-0.4 0.5,-1.5 0.9,-1.5 H 207 c 1,0 1,-0.6 1,-0.6 2.5,-10.4 2.6,-22.2 -12.5,-22.2 m 4.2,15.7 c 0,0.5 -1.6,0.4 -1.6,0.4 l -12.4,-0.1 c -0.4,0 -0.6,-0.6 -0.6,-1 0,0 0,-0.5 0.1,-0.6 1,-3.3 3.8,-5.2 8.4,-5.2 5.1,0 6.2,2.5 6.2,5.4"
   id="path153"
   clip-path="url(#clipPath206)"
   inkscape:connector-curvature="0"
   style="fill:#333333"
   transform="translate(-0.01238433,-2)" />
<path
   d="m 126.5,37.7 c 0,0 4.5,-10.9 5.5,-17.1 C 133.4,12.2 129.2,0 112.9,0 96.8,0 89.8,11.6 87.1,24.3 84.4,37 87.9,48.1 104,48 h 24.5 c 0.5,0 0.9,-0.4 1,-0.8 l 2.1,-7.9 c 0.1,-0.4 -0.2,-0.8 -0.6,-0.8 h -2 -2 c -0.4,0 -0.6,-0.3 -0.6,-0.6 0.1,0 0.1,-0.1 0.1,-0.2 m -8.4,-6.6 -1.8,6.3 c -0.1,0.4 -0.6,0.7 -1.1,0.7 h -9.5 c -7.2,0 -9,-5.6 -7.2,-13.9 1.8,-8.5 5.2,-13.7 12.3,-14.3 9.7,-0.7 11.7,6.1 9.3,14 z"
   id="path155"
   clip-path="url(#clipPath202)"
   inkscape:connector-curvature="0"
   style="fill:#333333"
   transform="translate(-0.01238433,-2)" />
<g
   id="g157"
   clip-path="url(#clipPath198)"
   transform="translate(-0.01238433,-2)">
</g>
<g
   id="g159"
   clip-path="url(#clipPath194)"
   transform="translate(-0.01238433,-2)">
</g>
<g
   id="g161"
   clip-path="url(#clipPath190)"
   transform="translate(-0.01238433,-2)">
</g>
<g
   id="g163"
   clip-path="url(#clipPath186)"
   transform="translate(-0.01238433,-2)">
</g>
<g
   id="g165"
   clip-path="url(#clipPath182)"
   transform="translate(-0.01238433,-2)">
</g>
<g
   id="g167"
   clip-path="url(#clipPath178)"
   transform="translate(-0.01238433,-2)">
</g>
</svg>