<?xml version="1.0" encoding="UTF-8" standalone="no"?>
<svg
   version="1.1"
   width="27.719999"
   height="32"
   viewBox="0 0 27.719999 32"
   id="svg6"
   sodipodi:docname="nginx.svg"
   inkscape:version="1.2 (dc2aedaf03, 2022-05-15)"
   xmlns:inkscape="http://www.inkscape.org/namespaces/inkscape"
   xmlns:sodipodi="http://sodipodi.sourceforge.net/DTD/sodipodi-0.dtd"
   xmlns="http://www.w3.org/2000/svg"
   xmlns:svg="http://www.w3.org/2000/svg"
   xmlns:rdf="http://www.w3.org/1999/02/22-rdf-syntax-ns#"
   xmlns:cc="http://creativecommons.org/ns#"
   xmlns:dc="http://purl.org/dc/elements/1.1/">
  <defs
     id="defs10" />
  <sodipodi:namedview
     id="namedview8"
     pagecolor="#ffffff"
     bordercolor="#000000"
     borderopacity="0.25"
     inkscape:showpageshadow="2"
     inkscape:pageopacity="0.0"
     inkscape:pagecheckerboard="0"
     inkscape:deskcolor="#d1d1d1"
     showgrid="false"
     inkscape:zoom="16.046875"
     inkscape:cx="7.6650438"
     inkscape:cy="25.550146"
     inkscape:window-width="1440"
     inkscape:window-height="2489"
     inkscape:window-x="-8"
     inkscape:window-y="-8"
     inkscape:window-maximized="1"
     inkscape:current-layer="svg6" />
  <title
     id="title2">nginx</title>
  <path
     style="fill:#598f3d;fill-opacity:1"
     d="M 13.86,0 0,8 v 16 l 13.86,8 13.86,-8 V 8 Z"
     id="path4" />
  <path
     style="fill:#ffffff;fill-opacity:1"
     d="m 21.86,22.12 c 0,0.943 -0.86,1.719 -2.036,1.719 -0.844,0 -1.803,-0.339 -2.401,-1.079 l -8,-9.52 v 8.88 c 0,0.959 -0.76,1.719 -1.703,1.719 h -0.1 c -0.963,0 -1.719,-0.803 -1.719,-1.719 V 9.88 c 0,-0.943 0.839,-1.719 2,-1.719 0.86,0 1.839,0.339 2.437,1.079 l 7.959,9.52 V 9.88 c 0,-0.963 0.803,-1.719 1.724,-1.719 h 0.099 c 0.959,0 1.719,0.797 1.719,1.719 v 12.24 z"
     id="path4537" />
  <metadata
     id="metadata2300">
    <rdf:RDF>
      <cc:Work
         rdf:about="">
        <dc:title>nginx</dc:title>
      </cc:Work>
    </rdf:RDF>
  </metadata>
</svg>
