<?xml version="1.0" encoding="UTF-8" standalone="no"?>
<svg
   version="1.1"
   width="32.00119"
   height="27.87352"
   viewBox="0 0 32.00119 27.87352"
   id="svg6"
   sodipodi:docname="proxmox.svg"
   inkscape:version="1.2 (dc2aedaf03, 2022-05-15)"
   xmlns:inkscape="http://www.inkscape.org/namespaces/inkscape"
   xmlns:sodipodi="http://sodipodi.sourceforge.net/DTD/sodipodi-0.dtd"
   xmlns="http://www.w3.org/2000/svg"
   xmlns:svg="http://www.w3.org/2000/svg"
   xmlns:rdf="http://www.w3.org/1999/02/22-rdf-syntax-ns#"
   xmlns:cc="http://creativecommons.org/ns#"
   xmlns:dc="http://purl.org/dc/elements/1.1/">
  <defs
     id="defs10" />
  <sodipodi:namedview
     id="namedview8"
     pagecolor="#ffffff"
     bordercolor="#000000"
     borderopacity="0.25"
     inkscape:showpageshadow="2"
     inkscape:pageopacity="0.0"
     inkscape:pagecheckerboard="0"
     inkscape:deskcolor="#d1d1d1"
     showgrid="false"
     inkscape:zoom="11.346854"
     inkscape:cx="10.046838"
     inkscape:cy="29.082951"
     inkscape:window-width="1440"
     inkscape:window-height="2489"
     inkscape:window-x="-8"
     inkscape:window-y="-8"
     inkscape:window-maximized="1"
     inkscape:current-layer="svg6" />
  <title
     id="title2">proxmox</title>
  <path
     d="m 10.604,20.566426 c -2.859,3.161 -5.208,5.833 -5.255,5.948 -0.047,0.094 0.276,0.417 0.693,0.714 0.552,0.417 1.151,0.578 2.281,0.625 2.099,0.135 2.88,-0.349 5.531,-3.344 1.156,-1.292 2.146,-2.375 2.167,-2.375 0.026,0 1.016,1.083 2.193,2.396 2.698,3 3.411,3.438 5.51,3.323 1.13,-0.047 1.729,-0.208 2.281,-0.625 0.417,-0.297 0.74,-0.62 0.693,-0.714 -0.115,-0.344 -10.563,-11.76 -10.745,-11.734 -0.094,0 -2.49,2.604 -5.349,5.786 z"
     id="path901" />
  <path
     d="m 26.354,3.9204261 c -0.672,0.344 -2.354,2.005 -5.26,5.188 -2.349,2.5829999 -4.266,4.7499999 -4.266,4.8389999 0,0.094 1.938,2.286 4.313,4.891 4.724,5.188 5.234,5.578 7.469,5.604 1.385,0 3.276,-0.786 3.391,-1.411 0.021,-0.208 -1.708,-2.281 -3.875,-4.656 -2.141,-2.37 -3.917,-4.38 -3.917,-4.427 0,-0.042 1.776,-2.052 3.917,-4.4269999 2.167,-2.37 3.896,-4.448 3.875,-4.63 -0.115,-0.599 -1.823,-1.292 -3.297,-1.385 -1.063,-0.047 -1.615,0.047 -2.349,0.417 z"
     id="path899"
     inkscape:highlight-color="#aaaaaa"
     style="fill:#c87719;fill-opacity:1" />
  <path
     d="m 1.729,3.7594261 c -1.13,0.438 -1.729,0.854 -1.729,1.172 0,0.161 1.776,2.24 3.922,4.615 2.167,2.3749999 3.917,4.3589999 3.917,4.4009999 0,0.047 -1.776,2.031 -3.922,4.406 -2.167,2.396 -3.896,4.495 -3.87,4.677 0.115,0.625 2.005,1.411 3.385,1.411 2.24,-0.026 2.745,-0.417 7.474,-5.604 2.375,-2.604 4.307,-4.818 4.307,-4.891 0,-0.089 -1.911,-2.255 -4.26,-4.8389999 -3.068,-3.344 -4.568,-4.844 -5.281,-5.167 -1.083,-0.531 -2.833,-0.62 -3.943,-0.182 z"
     id="path897"
     style="fill:#c87719;fill-opacity:1" />
  <path
     d="M 6.573,0.36842613 C 5.12,1.1084261 5.12,1.2224261 6.479,2.7434261 c 7.536,8.3909999 9.339,10.3749999 9.474,10.3749999 0.188,0.021 10.63,-11.3909999 10.745,-11.7339999 0.047,-0.094 -0.276,-0.41699997 -0.693,-0.71399997 -0.552,-0.417 -1.151,-0.578 -2.281,-0.625 -2.12,-0.135 -2.859,0.323 -5.49,3.27599997 -1.198,1.333 -2.214,2.443 -2.214,2.443 -0.021,0 -1.01,-1.083 -2.188,-2.396 -1.178,-1.313 -2.536,-2.62999997 -2.995,-2.88499997 -1.063,-0.599 -3.229,-0.646 -4.271,-0.115 z"
     id="path4" />
  <metadata
     id="metadata952">
    <rdf:RDF>
      <cc:Work
         rdf:about="">
        <dc:title>proxmox</dc:title>
      </cc:Work>
    </rdf:RDF>
  </metadata>
</svg>
